<?xml version="1.0" standalone="no"?>
<!DOCTYPE svg PUBLIC "-//W3C//DTD SVG 20010904//EN"
 "http://www.w3.org/TR/2001/REC-SVG-20010904/DTD/svg10.dtd">
<svg version="1.0" xmlns="http://www.w3.org/2000/svg"
 width="784.000000pt" height="784.000000pt" viewBox="0 0 784.000000 784.000000"
 preserveAspectRatio="xMidYMid meet">
<metadata>
Created by potrace 1.14, written by Peter Selinger 2001-2017
</metadata>
<g transform="translate(0.000000,784.000000) scale(0.100000,-0.100000)"
fill="#000000" stroke="none">
<path d="M3638 7425 c-2 -2 -37 -6 -78 -9 -41 -4 -93 -9 -115 -12 -22 -3 -56
-7 -75 -9 -82 -10 -126 -16 -140 -20 -8 -2 -35 -7 -60 -10 -25 -3 -52 -8 -60
-10 -8 -2 -31 -7 -50 -10 -125 -21 -478 -119 -573 -159 -21 -8 -39 -15 -42
-16 -66 -10 -469 -196 -650 -300 -112 -65 -314 -197 -338 -222 -10 -10 -21
-18 -26 -18 -4 0 -17 -8 -28 -17 -11 -10 -35 -29 -53 -43 -198 -149 -468 -415
-620 -610 -27 -36 -58 -74 -68 -86 -35 -42 -142 -203 -142 -213 0 -6 -4 -11
-8 -11 -5 0 -14 -10 -20 -22 -6 -13 -25 -45 -41 -73 -147 -246 -284 -575 -346
-825 -24 -97 -41 -173 -50 -220 -3 -14 -7 -34 -9 -46 -2 -12 -7 -45 -11 -74
-4 -29 -8 -62 -10 -72 -26 -134 -26 -657 0 -798 1 -8 6 -40 10 -70 4 -30 9
-64 12 -75 2 -11 6 -31 8 -45 31 -191 131 -507 227 -720 68 -149 193 -378 245
-446 13 -17 23 -36 23 -42 0 -6 3 -12 8 -14 4 -1 27 -32 52 -68 24 -36 50 -72
57 -80 7 -8 35 -44 63 -80 108 -136 304 -342 431 -452 29 -26 68 -59 84 -73
17 -15 46 -38 65 -53 19 -15 37 -29 40 -32 24 -25 222 -163 330 -230 124 -78
168 -102 340 -188 276 -138 490 -217 840 -312 72 -19 219 -50 335 -69 138 -24
171 -28 370 -47 108 -11 612 -11 710 -1 39 4 95 10 125 13 30 3 66 7 79 9 13
2 45 7 70 10 25 4 69 10 96 15 28 5 61 11 75 14 242 42 567 136 790 228 52 22
109 45 125 51 55 22 329 159 357 179 16 11 28 16 28 12 0 -4 8 0 18 8 14 12
68 46 206 131 11 7 25 15 30 20 6 4 47 33 91 64 275 196 527 434 739 697 48
59 94 120 104 135 9 14 19 28 22 31 4 3 31 43 61 90 100 154 114 176 128 205
5 11 27 53 49 92 22 40 37 73 34 73 -4 0 -1 4 6 9 7 4 15 14 16 22 2 8 14 39
28 69 14 30 40 91 58 135 17 44 36 89 40 100 10 23 48 142 55 171 3 10 16 60
30 109 14 50 28 104 30 120 3 17 8 37 10 45 2 8 6 29 9 45 3 17 10 59 16 95
27 165 38 333 35 545 -2 121 -6 238 -8 260 -3 22 -8 63 -11 90 -3 28 -8 61
-11 75 -3 14 -8 45 -11 70 -3 25 -8 49 -11 53 -2 4 -7 24 -9 45 -3 20 -20 96
-39 167 -50 194 -112 364 -196 543 -21 46 -39 87 -39 90 0 3 -7 13 -16 23 -8
9 -16 23 -18 31 -2 13 -68 132 -112 200 -13 21 -24 42 -24 47 0 5 -3 11 -7 13
-5 2 -30 36 -57 77 -27 40 -56 79 -63 86 -7 8 -13 16 -13 20 0 4 -45 61 -99
128 -133 164 -309 342 -506 512 -64 55 -259 198 -347 255 -51 32 -98 64 -105
70 -7 5 -14 10 -17 10 -2 0 -40 21 -83 46 -111 66 -397 204 -533 257 -115 45
-346 124 -384 131 -12 3 -48 12 -81 21 -54 15 -88 23 -163 39 -13 3 -32 8 -43
11 -10 4 -31 8 -47 10 -15 2 -27 4 -27 5 0 1 -9 3 -20 5 -11 1 -33 5 -50 8
-16 4 -49 9 -73 12 -24 3 -53 7 -65 10 -27 6 -83 13 -162 20 -33 3 -78 8 -100
11 -43 6 -641 14 -647 9z m512 -129 c92 -7 137 -11 215 -20 28 -3 70 -8 95
-11 25 -3 56 -7 70 -10 53 -10 87 -16 145 -26 64 -11 236 -49 290 -65 66 -19
123 -36 135 -39 8 -2 44 -13 80 -25 36 -12 70 -23 75 -24 6 -1 44 -15 85 -30
506 -192 911 -447 1244 -782 98 -99 205 -225 266 -314 14 -19 28 -39 32 -45
42 -52 123 -202 175 -325 42 -97 91 -227 98 -260 2 -8 13 -51 25 -95 85 -322
102 -629 54 -970 -5 -34 -16 -92 -40 -200 -2 -11 -6 -29 -8 -40 -2 -11 -19
-65 -37 -120 -18 -55 -33 -102 -34 -105 -1 -3 -7 -18 -13 -33 -7 -16 -12 -30
-12 -32 0 -2 -14 -34 -31 -72 -17 -37 -30 -69 -30 -70 0 -1 -11 -22 -24 -45
-13 -24 -34 -63 -46 -88 -13 -25 -25 -47 -28 -50 -8 -7 -27 -38 -46 -75 -14
-29 -166 -238 -189 -261 -6 -6 -29 -32 -51 -59 -50 -60 -204 -213 -283 -282
-257 -224 -657 -465 -1032 -622 -41 -17 -88 -38 -103 -46 -16 -8 -37 -15 -48
-15 -10 0 -19 -4 -19 -8 0 -5 -6 -9 -12 -9 -7 -1 -58 -17 -113 -38 -142 -52
-453 -139 -539 -150 -15 -3 -35 -7 -45 -9 -9 -3 -29 -8 -46 -10 -16 -3 -70
-12 -120 -20 -49 -9 -115 -18 -145 -22 -30 -3 -68 -8 -85 -10 -213 -24 -630
-24 -870 1 -102 11 -300 40 -335 50 -8 2 -33 6 -55 10 -22 3 -75 14 -119 25
-43 11 -89 20 -101 20 -12 0 -25 3 -28 7 -4 4 -40 15 -80 25 -69 17 -215 62
-247 75 -8 3 -17 7 -20 8 -34 8 -101 32 -185 65 -21 8 -56 22 -65 25 -12 4
-98 40 -155 65 -98 42 -461 226 -475 240 -5 5 -18 12 -75 44 -10 6 -25 17 -33
23 -7 7 -17 13 -22 13 -4 0 -44 25 -89 55 -45 30 -86 55 -91 55 -6 0 -10 4
-10 8 0 4 -12 15 -28 24 -30 19 -34 21 -147 110 -74 58 -100 80 -180 153 -30
27 -23 23 155 -100 177 -123 413 -252 672 -369 83 -37 386 -149 433 -160 6 -2
37 -11 70 -21 33 -10 65 -20 70 -21 6 -1 30 -7 55 -15 60 -17 62 -17 88 -23
13 -3 31 -7 40 -10 9 -3 35 -8 57 -12 22 -3 43 -8 46 -10 4 -2 24 -6 45 -9 22
-4 47 -8 56 -11 10 -3 30 -7 45 -10 46 -7 87 -14 112 -19 14 -2 47 -7 75 -10
28 -3 64 -8 81 -11 16 -3 54 -7 85 -9 30 -3 75 -7 100 -9 238 -23 544 -23 800
-1 107 10 163 16 195 20 17 3 50 7 75 10 25 3 56 8 70 10 14 2 41 7 60 10 19
3 46 8 60 10 40 8 73 15 100 20 14 3 36 7 50 11 14 3 35 7 47 9 12 2 37 8 56
14 19 7 43 13 55 16 80 15 419 124 475 152 15 7 27 11 27 7 0 -4 6 -1 13 5 8
6 17 8 20 4 4 -3 7 -1 7 5 0 7 6 12 14 12 46 0 518 264 631 352 6 5 33 25 60
45 159 119 314 262 441 408 59 67 204 259 204 268 0 3 16 29 36 59 70 106 247
490 258 561 1 7 4 17 8 22 10 17 66 247 73 304 4 30 9 63 11 75 23 118 23 427
0 556 -3 14 -7 39 -9 55 -12 77 -63 264 -89 325 -6 14 -14 34 -19 45 -24 61
-77 168 -111 224 -21 34 -38 65 -38 68 0 3 -13 22 -30 43 -16 21 -30 42 -30
48 0 6 -3 12 -8 14 -4 2 -23 23 -42 48 -54 69 -78 97 -165 184 -165 165 -279
255 -498 390 -113 70 -423 226 -449 226 -7 0 -18 4 -23 9 -13 12 -206 81 -325
116 -79 24 -266 68 -331 79 -19 3 -47 8 -64 12 -16 3 -43 7 -60 9 -44 5 -125
15 -160 21 -115 17 -454 23 -635 11 -131 -9 -179 -14 -305 -33 -16 -2 -43 -6
-60 -9 -16 -2 -39 -6 -50 -8 -11 -2 -36 -7 -55 -11 -82 -15 -165 -33 -165 -36
0 -1 -10 -3 -23 -6 -34 -6 -207 -67 -308 -109 -108 -45 -402 -189 -414 -204
-3 -3 -22 -15 -42 -26 -21 -11 -38 -22 -38 -26 0 -3 -12 -11 -26 -18 -15 -6
-52 -32 -84 -56 -32 -25 -62 -45 -66 -45 -3 0 -14 -8 -23 -18 -9 -9 -38 -35
-66 -57 -82 -64 -265 -257 -331 -346 -72 -97 -130 -191 -177 -286 -36 -72
-124 -297 -131 -335 -3 -13 -5 -23 -6 -23 -3 0 -19 -79 -27 -135 -18 -117 -2
-364 28 -441 5 -14 11 -35 12 -47 1 -12 4 -22 7 -22 3 0 12 -20 19 -46 24 -80
155 -318 201 -364 3 -3 23 -27 45 -55 39 -50 175 -188 230 -235 69 -58 164
-130 220 -166 33 -21 62 -42 63 -46 2 -5 9 -8 16 -8 6 0 27 -11 47 -24 81 -55
289 -152 369 -172 8 -2 42 -11 75 -20 33 -9 67 -17 75 -19 8 -2 33 -8 55 -13
22 -6 58 -13 80 -16 22 -3 54 -8 70 -10 120 -19 193 -27 275 -31 52 -2 97 -5
100 -5 46 -10 455 18 520 35 8 3 33 7 55 10 22 4 58 11 80 17 22 5 48 12 59
14 10 2 44 11 75 20 31 9 63 18 71 19 25 6 161 61 235 95 149 70 310 183 416
295 65 68 129 149 129 164 0 5 4 11 8 13 9 3 50 87 50 102 0 5 4 12 9 15 13
10 45 108 64 201 17 81 20 257 5 342 -12 77 -100 292 -125 308 -5 3 -15 19
-24 37 -30 58 -179 198 -284 267 -83 55 -155 94 -183 101 -3 1 -21 8 -40 16
-36 16 -132 44 -185 54 -74 14 -96 17 -194 19 -91 3 -143 -3 -261 -30 -67 -15
-250 -148 -250 -182 0 -18 31 -22 215 -24 99 -1 191 -5 205 -9 296 -87 463
-228 525 -442 18 -64 25 -210 12 -294 -20 -142 -130 -305 -268 -398 -24 -16
-46 -32 -49 -35 -6 -7 -184 -94 -215 -106 -31 -11 -33 -12 -150 -43 -60 -16
-132 -32 -160 -35 -27 -4 -61 -9 -75 -11 -30 -5 -255 -6 -290 -1 -44 6 -150
18 -157 18 -5 0 -15 4 -24 9 -9 4 -29 11 -45 13 -16 3 -58 17 -93 31 -36 14
-70 25 -77 25 -7 0 -14 4 -16 9 -1 4 -23 18 -48 29 -60 28 -155 83 -180 104
-11 10 -23 18 -26 18 -5 0 -11 4 -59 46 -107 94 -165 157 -228 252 -42 64 -97
174 -97 194 0 8 -4 18 -9 24 -7 8 -23 62 -37 129 -13 61 -16 100 -17 195 0 87
5 120 27 192 30 95 105 250 138 285 12 13 18 23 15 23 -4 0 1 8 11 18 9 10 31
36 47 58 111 144 358 329 560 419 33 14 74 33 90 40 87 39 311 102 432 121 19
3 45 8 57 10 129 26 506 25 676 -1 137 -22 301 -64 430 -112 122 -45 374 -167
400 -193 3 -3 39 -27 80 -55 41 -27 77 -52 80 -55 3 -3 30 -25 60 -49 79 -64
247 -236 303 -311 26 -36 55 -73 63 -83 8 -9 14 -20 14 -23 0 -3 8 -18 19 -32
38 -55 131 -232 131 -252 0 -5 5 -21 12 -37 60 -148 78 -377 44 -583 -13 -81
-87 -306 -105 -320 -3 -3 -17 -29 -30 -57 -14 -29 -28 -53 -33 -53 -4 0 -8 -6
-8 -12 0 -11 -107 -162 -150 -212 -25 -29 -196 -199 -227 -226 -16 -14 -56
-45 -88 -70 -33 -25 -62 -47 -65 -50 -3 -3 -25 -19 -50 -35 -25 -16 -47 -32
-50 -35 -3 -3 -39 -26 -80 -50 -41 -24 -78 -49 -82 -55 -4 -5 -8 -6 -8 -1 0 5
-8 2 -17 -7 -10 -8 -30 -19 -45 -22 -16 -4 -28 -10 -28 -14 0 -3 -15 -12 -32
-20 -18 -8 -55 -24 -83 -36 -27 -12 -77 -32 -110 -44 -33 -13 -69 -27 -80 -32
-97 -44 -466 -135 -615 -153 -25 -3 -70 -8 -100 -12 -30 -4 -72 -8 -95 -9 -22
-2 -40 -4 -40 -5 0 -1 -72 -1 -160 -2 -151 0 -265 5 -359 17 -22 3 -61 8 -86
11 -25 3 -54 7 -65 9 -11 2 -45 9 -75 14 -30 6 -64 13 -75 15 -35 7 -208 54
-265 72 -30 10 -59 18 -65 20 -35 8 -208 73 -310 117 -72 30 -315 156 -347
178 -14 11 -31 19 -37 19 -6 0 -11 3 -11 8 0 4 -13 13 -28 20 -16 6 -38 21
-50 32 -12 11 -24 20 -28 20 -5 0 -133 97 -199 151 -64 52 -245 238 -302 309
-68 86 -163 224 -163 239 0 5 -4 11 -9 13 -4 2 -29 46 -54 98 -169 350 -222
668 -172 1040 15 114 72 319 116 419 59 133 155 308 202 366 4 6 24 33 45 61
103 141 306 339 487 474 66 50 216 150 255 170 14 7 27 16 30 19 9 11 362 191
375 191 3 0 26 9 51 20 115 53 528 191 609 204 11 2 43 9 70 16 104 25 205 42
320 55 108 13 119 14 235 20 63 4 116 8 117 9 5 5 398 -3 483 -8z"/>
</g>
</svg>
