<svg xmlns="http://www.w3.org/2000/svg" version="1.1" xmlns:xlink="http://www.w3.org/1999/xlink"
    xmlns:svgjs="http://svgjs.dev/svgjs" width="2000" height="257" viewBox="0 0 2000 257">
    <g transform="matrix(1,0,0,1,-1.212111020190946,-0.4213394017694725)"><svg viewBox="0 0 396 51"
            data-background-color="#ffffff" preserveAspectRatio="xMidYMid meet" height="257" width="2000"
            xmlns="http://www.w3.org/2000/svg" xmlns:xlink="http://www.w3.org/1999/xlink">
            <g id="tight-bounds" transform="matrix(1,0,0,1,0.23999799027745894,0.08361209918382428)"><svg
                    viewBox="0 0 395.52 50.83277580163234" height="50.83277580163234" width="395.52">
                    <g><svg viewBox="0 0 491.786538936588 63.20508413234301" height="50.83277580163234" width="395.52">
                            <g>
                                <rect width="4.124384742909926" height="45.96317623227548" x="81.345335494961"
                                    y="8.620953950033766" fill="#4b91f1" opacity="1" stroke-width="0"
                                    stroke="transparent" fill-opacity="1" class="rect-o-0"
                                    data-fill-palette-color="primary" rx="1%" id="o-0" data-palette-color="#4b91f1">
                                </rect>
                            </g>
                            <g transform="matrix(1,0,0,1,96.266538936588,8.73529020931803)"><svg
                                    viewBox="0 0 395.52 45.73450371370695" height="45.73450371370695" width="395.52">
                                    <g><svg viewBox="0 0 395.52 45.73450371370695" height="45.73450371370695"
                                            width="395.52">
                                            <g><svg viewBox="0 0 395.52 45.73450371370695" height="45.73450371370695"
                                                    width="395.52">
                                                    <g transform="matrix(1,0,0,1,0,0)"><svg width="395.52"
                                                            viewBox="-0.10000000149011612 -33.45000076293945 289.3399963378906 33.45000076293945"
                                                            height="45.73450371370695" data-palette-color="#4b91f1">
                                                            <g class="undefined-text-0"
                                                                data-fill-palette-color="primary" id="text-0">
                                                                <path
                                                                    d="M10.69-33.45L18.21-33.45Q20.68-33.45 22.68-32.71 24.68-31.98 26.09-30.71 27.49-29.44 28.25-27.75 29-26.05 29-24.15L29-24.15 29-9.3Q29-7.4 28.25-5.7 27.49-4 26.09-2.73 24.68-1.46 22.68-0.73 20.68 0 18.21 0L18.21 0 10.69 0Q8.23 0 6.23-0.73 4.22-1.46 2.82-2.73 1.42-4 0.66-5.7-0.1-7.4-0.1-9.3L-0.1-9.3-0.1-24.15Q-0.1-26.05 0.66-27.75 1.42-29.44 2.82-30.71 4.22-31.98 6.23-32.71 8.23-33.45 10.69-33.45L10.69-33.45ZM20-16.26L20.46-11.06 23.24-11.06 21.31-29.25 19.8-30.76 16.55-31.25 13.94-31.25 10.69-30.76 9.2-29.25 7.2-11.06 10.11-11.06 10.5-16.26 10.74-18.51 19.75-18.51 20-16.26ZM16.46-28.66L18.75-28.3Q18.92-26.32 19.14-24.56 19.36-22.8 19.56-20.85L19.56-20.85 10.96-20.85 11.69-28.3Q12.38-28.37 12.88-28.47 13.38-28.56 14.06-28.66L14.06-28.66 16.46-28.66ZM39.6-33.45L47.12-33.45Q49.58-33.45 51.58-32.71 53.59-31.98 54.99-30.71 56.39-29.44 57.15-27.75 57.91-26.05 57.91-24.15L57.91-24.15 57.91-9.3Q57.91-7.4 57.15-5.7 56.39-4 54.99-2.73 53.59-1.46 51.58-0.73 49.58 0 47.12 0L47.12 0 39.6 0Q37.13 0 35.13-0.73 33.13-1.46 31.72-2.73 30.32-4 29.56-5.7 28.81-7.4 28.81-9.3L28.81-9.3 28.81-24.15Q28.81-26.05 29.56-27.75 30.32-29.44 31.72-30.71 33.13-31.98 35.13-32.71 37.13-33.45 39.6-33.45L39.6-33.45ZM52-14.99L52-31.25 49.41-31.25 49.41-15.26Q49.36-14.94 49.25-14.58 49.14-14.21 49.05-13.89L49.05-13.89 47.46-13.65 41.21-13.65 39.6-13.89 39.26-15.36 39.26-31.25 36.72-31.25 36.72-14.99 37.01-12.89 38.6-11.35 41.06-11.06 47.6-11.06 50.1-11.35 51.66-12.89 52-14.99ZM68.5-33.45L76.02-33.45Q78.49-33.45 80.49-32.71 82.49-31.98 83.89-30.71 85.3-29.44 86.05-27.75 86.81-26.05 86.81-24.15L86.81-24.15 86.81-9.3Q86.81-7.4 86.05-5.7 85.3-4 83.89-2.73 82.49-1.46 80.49-0.73 78.49 0 76.02 0L76.02 0 68.5 0Q66.04 0 64.03-0.73 62.03-1.46 60.63-2.73 59.22-4 58.47-5.7 57.71-7.4 57.71-9.3L57.71-9.3 57.71-24.15Q57.71-26.05 58.47-27.75 59.22-29.44 60.63-30.71 62.03-31.98 64.03-32.71 66.04-33.45 68.5-33.45L68.5-33.45ZM79.95-14.94L79.95-18.8 79.49-20.61 77.53-21.46 79.49-22.19 79.95-24.05 79.95-27.29 79.61-29.35 78.07-30.91 75.56-31.25 65.3-31.25 65.3-11.06 75.56-11.06 78.07-11.35 79.61-12.89 79.95-14.94ZM77.36-15.21L77.02-13.89 75.41-13.65 67.91-13.65 67.91-20.09 75.46-20.09 77.12-19.9 77.36-18.46 77.36-15.21ZM77.36-24.24L77.02-22.95 75.41-22.66 67.91-22.66 67.91-28.66 75.41-28.66 77.12-28.39 77.02-26.95 77.36-24.24ZM97.4-33.45L104.92-33.45Q107.39-33.45 109.39-32.71 111.39-31.98 112.8-30.71 114.2-29.44 114.96-27.75 115.72-26.05 115.72-24.15L115.72-24.15 115.72-9.3Q115.72-7.4 114.96-5.7 114.2-4 112.8-2.73 111.39-1.46 109.39-0.73 107.39 0 104.92 0L104.92 0 97.4 0Q94.94 0 92.94-0.73 90.93-1.46 89.53-2.73 88.13-4 87.37-5.7 86.61-7.4 86.61-9.3L86.61-9.3 86.61-24.15Q86.61-26.05 87.37-27.75 88.13-29.44 89.53-30.71 90.93-31.98 92.94-32.71 94.94-33.45 97.4-33.45L97.4-33.45ZM105.8-18.41L106.17-17.09 106.17-11.06 108.76-11.06 108.76-17.36 107.9-19.6 105.12-20.61 107.81-21.9 108.56-24.1 108.56-26.81 108.27-28.86 106.66-30.91 104.22-31.25 95.11-31.25 95.11-11.06 97.72-11.06 97.72-19.19 104.07-19.19 105.8-18.41ZM97.72-28.66L104.07-28.66 105.8-27.91 105.97-26.49 105.97-23.9 105.61-22.56 104.07-21.8 97.72-21.8 97.72-28.66ZM131.17-20.29L126.82-31.25 123.77-31.25 129.87-16.75 129.87-11.06 132.46-11.06 132.46-16.7 138.66-31.25 135.61-31.25 131.17-20.29ZM126.31-33.45L133.83-33.45Q136.29-33.45 138.3-32.71 140.3-31.98 141.7-30.71 143.11-29.44 143.86-27.75 144.62-26.05 144.62-24.15L144.62-24.15 144.62-9.3Q144.62-7.4 143.86-5.7 143.11-4 141.7-2.73 140.3-1.46 138.3-0.73 136.29 0 133.83 0L133.83 0 126.31 0Q123.84 0 121.84-0.73 119.84-1.46 118.43-2.73 117.03-4 116.27-5.7 115.52-7.4 115.52-9.3L115.52-9.3 115.52-24.15Q115.52-26.05 116.27-27.75 117.03-29.44 118.43-30.71 119.84-31.98 121.84-32.71 123.84-33.45 126.31-33.45L126.31-33.45Z"
                                                                    fill="#4b91f1" data-fill-palette-color="primary">
                                                                </path>
                                                                <path
                                                                    d="M165.66-11.06L165.66-13.65 158.17-13.65 158.17-31.25 155.58-31.25 155.58-11.06 165.66-11.06ZM155.31-33.45L162.83-33.45Q165.3-33.45 167.3-32.71 169.3-31.98 170.71-30.71 172.11-29.44 172.87-27.75 173.62-26.05 173.62-24.15L173.62-24.15 173.62-9.3Q173.62-7.4 172.87-5.7 172.11-4 170.71-2.73 169.3-1.46 167.3-0.73 165.3 0 162.83 0L162.83 0 155.31 0Q152.85 0 150.85-0.73 148.84-1.46 147.44-2.73 146.04-4 145.28-5.7 144.52-7.4 144.52-9.3L144.52-9.3 144.52-24.15Q144.52-26.05 145.28-27.75 146.04-29.44 147.44-30.71 148.84-31.98 150.85-32.71 152.85-33.45 155.31-33.45L155.31-33.45ZM184.22-33.45L191.74-33.45Q194.2-33.45 196.2-32.71 198.21-31.98 199.61-30.71 201.01-29.44 201.77-27.75 202.53-26.05 202.53-24.15L202.53-24.15 202.53-9.3Q202.53-7.4 201.77-5.7 201.01-4 199.61-2.73 198.21-1.46 196.2-0.73 194.2 0 191.74 0L191.74 0 184.22 0Q181.75 0 179.75-0.73 177.75-1.46 176.34-2.73 174.94-4 174.18-5.7 173.43-7.4 173.43-9.3L173.43-9.3 173.43-24.15Q173.43-26.05 174.18-27.75 174.94-29.44 176.34-30.71 177.75-31.98 179.75-32.71 181.75-33.45 184.22-33.45L184.22-33.45ZM196.62-14.99L196.62-31.25 194.03-31.25 194.03-15.26Q193.98-14.94 193.87-14.58 193.76-14.21 193.67-13.89L193.67-13.89 192.08-13.65 185.83-13.65 184.22-13.89 183.88-15.36 183.88-31.25 181.34-31.25 181.34-14.99 181.63-12.89 183.22-11.35 185.68-11.06 192.22-11.06 194.72-11.35 196.28-12.89 196.62-14.99ZM225.18-11.06L225.18-27.34 224.84-29.39 223.28-30.96 220.79-31.25 214.68-31.25 210.29-30.64 210.29-11.06 212.88-11.06 212.88-28.39 214.78-28.71 220.64-28.71 222.32-28.44 222.57-27 222.57-11.06 225.18-11.06ZM213.12-33.45L220.64-33.45Q223.11-33.45 225.11-32.71 227.11-31.98 228.51-30.71 229.92-29.44 230.67-27.75 231.43-26.05 231.43-24.15L231.43-24.15 231.43-9.3Q231.43-7.4 230.67-5.7 229.92-4 228.51-2.73 227.11-1.46 225.11-0.73 223.11 0 220.64 0L220.64 0 213.12 0Q210.66 0 208.65-0.73 206.65-1.46 205.25-2.73 203.84-4 203.09-5.7 202.33-7.4 202.33-9.3L202.33-9.3 202.33-24.15Q202.33-26.05 203.09-27.75 203.84-29.44 205.25-30.71 206.65-31.98 208.65-32.71 210.66-33.45 213.12-33.45L213.12-33.45ZM242.54-28.34L244.12-28.71 250.47-28.71 252.99-28.3 253.47-30.91 250.64-31.25 244.08-31.25 241.59-30.86 240.02-29.3 239.68-27.25 239.68-14.99 240.02-12.89 241.63-11.35 244.08-11.06 250.18-11.06 252.64-11.35 254.23-12.89 254.57-14.99 254.57-21.41 247.49-21.41 247.49-18.8 251.99-18.8 251.99-15.36Q251.86-14.97 251.81-14.62 251.77-14.28 251.64-13.89L251.64-13.89 250.03-13.65 244.12-13.65 242.63-13.89 242.29-15.45 242.29-27 242.54-28.34ZM242.02-33.45L249.54-33.45Q252.01-33.45 254.01-32.71 256.01-31.98 257.42-30.71 258.82-29.44 259.58-27.75 260.34-26.05 260.34-24.15L260.34-24.15 260.34-9.3Q260.34-7.4 259.58-5.7 258.82-4 257.42-2.73 256.01-1.46 254.01-0.73 252.01 0 249.54 0L249.54 0 242.02 0Q239.56 0 237.56-0.73 235.55-1.46 234.15-2.73 232.75-4 231.99-5.7 231.23-7.4 231.23-9.3L231.23-9.3 231.23-24.15Q231.23-26.05 231.99-27.75 232.75-29.44 234.15-30.71 235.55-31.98 237.56-32.71 239.56-33.45 242.02-33.45L242.02-33.45ZM270.93-33.45L278.45-33.45Q280.91-33.45 282.92-32.71 284.92-31.98 286.32-30.71 287.73-29.44 288.48-27.75 289.24-26.05 289.24-24.15L289.24-24.15 289.24-9.3Q289.24-7.4 288.48-5.7 287.73-4 286.32-2.73 284.92-1.46 282.92-0.73 280.91 0 278.45 0L278.45 0 270.93 0Q268.46 0 266.46-0.73 264.46-1.46 263.05-2.73 261.65-4 260.89-5.7 260.14-7.4 260.14-9.3L260.14-9.3 260.14-24.15Q260.14-26.05 260.89-27.75 261.65-29.44 263.05-30.71 264.46-31.98 266.46-32.71 268.46-33.45 270.93-33.45L270.93-33.45ZM283.33-14.99L283.33-31.25 280.74-31.25 280.74-15.26Q280.69-14.94 280.58-14.58 280.47-14.21 280.38-13.89L280.38-13.89 278.79-13.65 272.54-13.65 270.93-13.89 270.59-15.36 270.59-31.25 268.05-31.25 268.05-14.99 268.34-12.89 269.93-11.35 272.39-11.06 278.94-11.06 281.43-11.35 282.99-12.89 283.33-14.99Z"
                                                                    fill="#4b91f1" data-fill-palette-color="primary">
                                                                </path>
                                                            </g>
                                                        </svg></g>
                                                </svg></g>
                                        </svg></g>
                                </svg></g>
                            <g><svg viewBox="0 0 70.54851679624392 63.20508413234301" height="63.20508413234301"
                                    width="70.54851679624392">
                                    <g><svg xmlns="http://www.w3.org/2000/svg"
                                            xmlns:xlink="http://www.w3.org/1999/xlink" version="1.1" x="0" y="0"
                                            viewBox="0.9850000143051147 6.086999893188477 98.02999877929688 87.82600402832031"
                                            enable-background="new 0 0 100 100" xml:space="preserve"
                                            height="63.20508413234301" width="70.54851679624392" class="icon-icon-0"
                                            data-fill-palette-color="accent" id="icon-0">
                                            <path
                                                d="M50 6.087C22.93 6.087 0.985 25.748 0.985 50 0.985 74.253 22.93 93.913 50 93.913c27.07 0 49.015-19.66 49.015-43.913C99.015 25.748 77.07 6.087 50 6.087zM74.833 69.08c-32.125 19.166-60.851-0.667-66.379-6.454 14.492 11.331 37.288 14.851 56.379 6.787C76.146 64.037 82.172 56.755 85 47.079c2.829-10.751-0.536-20.965-11.143-27.954-9.899-6.451-22.628-8.601-35.355-5.376-9.899 3.226-17.678 9.139-20.506 17.74-3.535 9.139 2.829 18.277 13.435 23.115 10.606 3.763 25.456 2.15 31.113-6.45 3.535-5.914 2.121-13.44-5.657-17.203-3.535-1.613-8.303-1.955-10.86 0.174-3.521 2.932 1.89 0.361 5.874 2.206 2.517 1.165 5.6 3.165 4.986 8.372-0.772 6.559-11.313 9.677-18.385 7.526-7.778-2.688-11.314-8.601-10.606-14.515 1.414-6.451 7.778-11.289 15.557-12.902 13.435-2.688 25.455 4.301 29.698 13.978 3.535 9.138-2.121 17.739-12.021 23.115-8.484 4.301-18.385 5.376-27.577 2.688-13.435-3.763-22.627-12.901-23.334-24.19C9.511 22.888 22.238 12.137 39.916 8.374c19.799-3.225 39.598 4.301 48.083 18.277C95.777 41.166 91.609 59.071 74.833 69.08z"
                                                fill="#4b91f1" data-fill-palette-color="accent"></path>
                                        </svg></g>
                                </svg></g>
                        </svg></g>
                    <defs></defs>
                </svg>
                <rect width="395.52" height="50.83277580163234" fill="none" stroke="none" visibility="hidden"></rect>
            </g>
        </svg></g>
</svg>