<?xml version="1.0" encoding="UTF-8"?>
<svg viewBox="37.971 17.868 98.03 87.826" width="98.03" height="87.826" version="1.1" xmlns="http://www.w3.org/2000/svg" xmlns:xlink="http://www.w3.org/1999/xlink">
  <path d="M 86.986 17.868 C 59.916 17.868 37.971 37.529 37.971 61.781 C 37.971 86.034 59.916 105.694 86.986 105.694 C 114.056 105.694 136.001 86.034 136.001 61.781 C 136.001 37.529 114.056 17.868 86.986 17.868 Z M 111.819 80.861 C 79.694 100.027 50.968 80.194 45.44 74.407 C 59.932 85.738 82.728 89.258 101.819 81.194 C 113.132 75.818 119.158 68.536 121.986 58.86 C 124.815 48.109 121.45 37.895 110.843 30.906 C 100.944 24.455 88.215 22.305 75.488 25.53 C 65.589 28.756 57.81 34.669 54.982 43.27 C 51.447 52.409 57.811 61.547 68.417 66.385 C 79.023 70.148 93.873 68.535 99.53 59.935 C 103.065 54.021 101.651 46.495 93.873 42.732 C 90.338 41.119 85.57 40.777 83.013 42.906 C 79.492 45.838 84.903 43.267 88.887 45.112 C 91.404 46.277 94.487 48.277 93.873 53.484 C 93.101 60.043 82.56 63.161 75.488 61.01 C 67.71 58.322 64.174 52.409 64.882 46.495 C 66.296 40.044 72.66 35.206 80.439 33.593 C 93.874 30.905 105.894 37.894 110.137 47.571 C 113.672 56.709 108.016 65.31 98.116 70.686 C 89.632 74.987 79.731 76.062 70.539 73.374 C 57.104 69.611 47.912 60.473 47.205 49.184 C 46.497 34.669 59.224 23.918 76.902 20.155 C 96.701 16.93 116.5 24.456 124.985 38.432 C 132.763 52.947 128.595 70.852 111.819 80.861 Z" fill="#4b91f1" data-fill-palette-color="accent" style="stroke-width: 0px;"></path>
</svg>