<svg xmlns="http://www.w3.org/2000/svg" xmlns:xlink="http://www.w3.org/1999/xlink" width="80" height="80" viewBox="0 0 35 35" fill="none">
  <path fill-rule="evenodd" clip-rule="evenodd" d="M.044 18.323c-.012.723.027 1.434.102 2.131l12.744-6.528-4.753-4.754-8.035 8.034c-.03.37-.052.742-.058 1.117zm5.132-12.11 2.961 2.96L16.34.968c-4.333.348-8.254 2.294-11.164 5.243zm23.028-1.636-15.314 9.35 4.754 4.752L30.028 6.296a16.379 16.379 0 0 0-1.824-1.719zm5.99 10.885-11.796 7.971 4.754 4.754 6.695-6.695c.284-1.2.448-2.446.47-3.723a17.07 17.07 0 0 0-.123-2.307zM29.015 30.05l-1.863-1.863-6.526 6.526a17.807 17.807 0 0 0 8.39-4.663zm-6.617-6.617-4.754-4.754L5.43 30.894a16.348 16.348 0 0 0 2.1 1.617l14.87-9.078z" fill="#5D4DC4"/>
</svg>