<?xml version="1.0" encoding="UTF-8"?>
<svg width="113px" height="53px" viewBox="0 0 113 53" version="1.1" xmlns="http://www.w3.org/2000/svg" xmlns:xlink="http://www.w3.org/1999/xlink">
    <!-- Generator: sketchtool 55.2 (78181) - https://sketchapp.com -->
    <title>DB17859D-32A7-4EA4-B579-60FD69426EB9</title>
    <desc>Created with sketchtool.</desc>
    <defs>
        <polygon id="path-1" points="0.0143644068 0.196959459 94.5175572 0.196959459 94.5175572 16.4586486 0.0143644068 16.4586486"></polygon>
    </defs>
    <g id="FINAL" stroke="none" stroke-width="1" fill="none" fill-rule="evenodd">
        <g id="HOMEPAGE-Montserrat" transform="translate(-81.000000, -19.000000)">
            <g id="Main-Menu">
                <g id="FirstQuantum-723" transform="translate(81.000000, 19.000000)">
                    <path d="M55.2809407,49.1918784 L55.2809407,49.3523108 C55.7992564,49.3981486 55.8416314,49.4554459 55.7992564,50.2170225 L55.7329407,51.3966306 C55.7027754,51.9464459 55.6546547,52.2842613 55.6244894,52.4561532 C55.5823538,52.6736441 55.4616928,52.7309414 55.1602797,52.7538604 L55.1602797,52.9142928 L56.5892987,52.9142928 L56.5892987,52.7538604 C56.1914047,52.719482 56.0647585,52.6736441 56.0405784,52.4561532 C56.0163983,52.2842613 56.0104131,51.9693649 56.0223835,51.4539279 L56.0647585,49.9706441 L56.0886992,49.9706441 L57.4092669,52.845536 L57.5902585,52.845536 L58.958947,49.8562883 L58.9831271,49.8562883 L59.0073072,52.0553108 C59.0132924,52.6965631 58.9950975,52.7080225 58.5249025,52.7538604 L58.5249025,52.9142928 L60.2069746,52.9142928 L60.2069746,52.7538604 C59.7185847,52.7080225 59.7006292,52.6965631 59.6824343,52.0553108 L59.6221038,50.0508604 C59.6101335,49.4210676 59.6343136,49.3981486 60.1227034,49.3523108 L60.1227034,49.1918784 L58.9831271,49.1918784 L57.7228898,51.923527 L56.3903517,49.1918784 L55.2809407,49.1918784" id="Fill-1" fill="#6F8F9D"></path>
                    <path d="M62.0834449,49.1918784 L62.0834449,49.3523108 C62.5536398,49.3866892 62.602,49.432527 62.602,50.0508604 L62.602,52.0553108 C62.602,52.6736441 62.5536398,52.719482 62.0834449,52.7538604 L62.0834449,52.9142928 L63.7837119,52.9142928 L63.7837119,52.7538604 C63.3254873,52.719482 63.2776059,52.6736441 63.2776059,52.0553108 L63.2776059,50.0508604 C63.2776059,49.432527 63.3254873,49.3866892 63.7837119,49.3523108 L63.7837119,49.1918784 L62.0834449,49.1918784" id="Fill-2" fill="#6F8F9D"></path>
                    <path d="M65.6020064,49.1918784 L65.6020064,49.3523108 C66.0963814,49.3866892 66.2290127,49.5242027 66.2290127,50.1883739 L66.2290127,51.3106847 C66.2290127,51.9636351 66.1988475,52.2842613 66.1746674,52.4561532 C66.1445021,52.6621847 65.9876907,52.7424009 65.6862775,52.7538604 L65.6862775,52.9142928 L67.1576716,52.9142928 L67.1576716,52.7538604 C66.7717479,52.7309414 66.6027267,52.6621847 66.5725614,52.4561532 C66.5486208,52.2842613 66.5184555,51.9636351 66.5184555,51.3106847 L66.5184555,50.0737793 L66.5304258,50.0737793 L69.01475,52.9601306 L69.2919831,52.9601306 L69.2919831,50.7954865 C69.2919831,50.142536 69.3221483,49.8219099 69.3463284,49.650018 C69.3764936,49.4439865 69.5333051,49.3637703 69.8347182,49.3523108 L69.8347182,49.1918784 L68.3635636,49.1918784 L68.3635636,49.3523108 C68.7494873,49.3752297 68.9182691,49.4439865 68.9484343,49.650018 C68.9726144,49.8219099 69.0025403,50.142536 69.0025403,50.7954865 L69.0025403,51.8834189 L68.9905699,51.8834189 L66.5847712,49.1918784 L65.6020064,49.1918784" id="Fill-3" fill="#6F8F9D"></path>
                    <path d="M71.6673771,49.1918784 L71.6673771,49.3523108 C72.1258411,49.3866892 72.1739619,49.432527 72.1739619,50.0508604 L72.1739619,52.0553108 C72.1739619,52.6736441 72.1258411,52.719482 71.607286,52.7538604 L71.607286,52.9142928 L74.5498347,52.9142928 C74.5977161,52.7538604 74.7303475,52.1696667 74.7545275,51.9750946 L74.5737754,51.9407162 C74.4710699,52.2155045 74.3686038,52.4103153 74.2661377,52.5191802 C74.1394915,52.6621847 73.8622585,52.6851036 73.5606059,52.6851036 C73.307553,52.6851036 73.090411,52.6793739 72.9819597,52.6106171 C72.8732691,52.5361306 72.849089,52.3759369 72.849089,52.0438514 L72.849089,51.1046532 L73.3676441,51.1046532 C73.8861992,51.1046532 73.8984089,51.1275721 73.9587394,51.579982 L74.1517013,51.579982 L74.1517013,50.3659955 L73.9587394,50.3659955 C73.8984089,50.8069459 73.8861992,50.8413243 73.3676441,50.8413243 L72.849089,50.8413243 L72.849089,49.6270991 C72.849089,49.4210676 72.8612987,49.4210676 73.090411,49.4210676 L73.3918242,49.4210676 C73.7657775,49.4210676 73.9587394,49.4554459 74.0614449,49.5526126 C74.1517013,49.6385586 74.2240021,49.798991 74.2843326,50.0737793 L74.4650847,50.0623198 C74.4289343,49.7073153 74.4047542,49.2835541 74.3927839,49.1918784 L71.6673771,49.1918784" id="Fill-4" fill="#6F8F9D"></path>
                    <path d="M77.708089,49.6156396 C77.708089,49.432527 77.7200593,49.4096081 78.0097415,49.4096081 C78.3956653,49.4096081 78.8297097,49.6156396 78.8297097,50.2112928 C78.8297097,50.4860811 78.7451992,50.7611081 78.5041165,50.9442207 C78.3473051,51.0588153 78.1785233,51.0931937 77.9372013,51.0931937 L77.708089,51.0931937 L77.708089,49.6156396 Z M76.5383475,49.1918784 L76.5383475,49.3523108 C76.996572,49.3866892 77.0449322,49.432527 77.0449322,50.0508604 L77.0449322,52.0553108 C77.0449322,52.6736441 76.996572,52.719482 76.5141674,52.7538604 L76.5141674,52.9142928 L78.2146737,52.9142928 L78.2146737,52.7538604 C77.7564492,52.719482 77.708089,52.6736441 77.708089,52.0553108 L77.708089,51.2877658 L77.9010508,51.2877658 C78.0820424,51.2877658 78.1543432,51.3450631 78.2510636,51.5054955 C78.4255911,51.8032027 78.6247775,52.1696667 78.8177394,52.4332342 C79.0528369,52.7538604 79.2580085,52.9142928 79.9149407,52.9601306 L80.1682331,52.9713514 L80.1924131,52.8226171 C80.0174068,52.782509 79.9211653,52.6965631 79.7765636,52.5592883 C79.6618877,52.4446937 79.5050763,52.2384234 79.2757246,51.923527 C79.0830021,51.6659279 78.8476653,51.2648468 78.7514237,51.1046532 C79.2398136,50.9327613 79.553197,50.5949459 79.553197,50.1138874 C79.553197,49.7760721 79.3904004,49.5354234 79.155303,49.3866892 C78.9142203,49.2377162 78.6005975,49.1918784 78.1605678,49.1918784 L76.5383475,49.1918784 L76.5383475,49.1918784 Z" id="Fill-5" fill="#6F8F9D"></path>
                    <path d="M83.4909597,49.1918784 L82.2728581,52.1696667 C82.0619407,52.6851036 81.9953856,52.7080225 81.6216716,52.7538604 L81.6216716,52.9142928 L82.9601949,52.9142928 L82.9601949,52.7538604 L82.7914131,52.7366712 C82.5261504,52.7080225 82.4777903,52.633536 82.5864809,52.3300991 C82.6707521,52.0896892 82.7796822,51.7688243 82.8577288,51.5971712 L83.973125,51.5971712 C84.0997712,51.8948784 84.2446123,52.2498829 84.3049428,52.4217748 C84.3772436,52.6392658 84.3655127,52.6965631 84.1364004,52.7309414 L83.9671398,52.7538604 L83.9671398,52.9142928 L85.5529703,52.9142928 L85.5529703,52.7538604 C85.2036758,52.719482 85.1189258,52.6793739 84.9142331,52.1696667 C84.6851208,51.5971712 84.4193792,50.8869234 84.1481314,50.1883739 L83.7320424,49.1231216 L83.4909597,49.1918784 Z M83.3944788,50.0737793 L83.4124343,50.0737793 L83.8828686,51.3336036 L82.9240445,51.3336036 L83.3944788,50.0737793 L83.3944788,50.0737793 Z" id="Fill-6" fill="#6F8F9D"></path>
                    <g id="Group-11" transform="translate(0.000000, 36.527027)">
                        <mask id="mask-2" fill="white">
                            <use xlink:href="#path-1"></use>
                        </mask>
                        <g id="Clip-8"></g>
                        <path d="M87.2472521,12.6648514 L87.2472521,12.8252838 C87.7294174,12.8596622 87.7777775,12.9055 87.7777775,13.5238333 L87.7777775,15.5282838 C87.7777775,16.1466171 87.7294174,16.192455 87.223072,16.2268333 L87.223072,16.3872658 L90.0509449,16.3872658 C90.0993051,16.2153739 90.2319364,15.6314189 90.2680869,15.4480676 L90.075125,15.4136892 C89.9786441,15.6884775 89.8824025,15.8832883 89.779697,15.9921532 C89.6530508,16.1351577 89.3636081,16.1580766 89.0861356,16.1580766 C88.8931737,16.1580766 88.6944661,16.1466171 88.5917606,16.0778604 C88.4892945,16.0091036 88.4531441,15.8489099 88.4531441,15.5168243 L88.4531441,13.5238333 C88.4531441,12.9055 88.5012648,12.8596622 88.9839089,12.8252838 L88.9839089,12.6648514 L87.2472521,12.6648514" id="Fill-7" fill="#6F8F9D" mask="url(#mask-2)"></path>
                        <path d="M94.3609852,13.5066441 C94.3008941,13.186018 94.2642648,12.9341486 94.2403242,12.7336081 C94.1680233,12.7049595 94.0835127,12.6935 93.9870318,12.6591216 C93.8180106,12.6018243 93.6011081,12.5791441 93.4383114,12.5791441 C92.6303136,12.5791441 92.1538941,13.0714234 92.1538941,13.6728063 C92.1538941,14.2340811 92.6604788,14.537518 93.0583729,14.7320901 L93.2513347,14.8237658 C93.7277542,15.0472252 93.8905508,15.2761757 93.8905508,15.5970405 C93.8905508,15.952045 93.6492288,16.2440225 93.2575593,16.2440225 C92.6362987,16.2440225 92.3107055,15.6082613 92.1902839,15.3105541 L92.0092924,15.3678514 C92.0696229,15.7171261 92.1419237,16.106509 92.1902839,16.255482 C92.2625847,16.2784009 92.371036,16.3242387 92.5398178,16.3758063 C92.6966292,16.4271351 92.9140106,16.472973 93.1428835,16.472973 C93.9568665,16.472973 94.5175572,15.9921532 94.5175572,15.3105541 C94.5175572,14.7151396 94.0835127,14.411464 93.6130784,14.2111622 L93.4562669,14.1424054 C92.9920572,13.9418649 92.7509746,13.7301036 92.7509746,13.4092387 C92.7509746,13.0828829 92.9678771,12.8080946 93.3660106,12.8080946 C93.8723559,12.8080946 94.0593326,13.2089369 94.1680233,13.5410225 L94.3609852,13.5066441" id="Fill-9" fill="#6F8F9D" mask="url(#mask-2)"></path>
                        <path d="M0,0.196959459 L0,0.61713964 C1.115875,0.707144144 1.23653602,0.82722973 1.23653602,2.44778829 L1.23653602,7.69956306 C1.23653602,9.32012162 1.115875,9.44020721 0,9.53021171 L0,9.95039189 L4.43357415,9.95039189 L4.43357415,9.53021171 C3.04621186,9.44020721 2.92555085,9.32012162 2.92555085,7.69956306 L2.92555085,5.35872973 L4.43357415,5.35872973 C5.73068008,5.35872973 5.76084534,5.41889189 5.91167161,6.54406757 L6.39407627,6.54406757 L6.39407627,3.46815766 L5.91167161,3.46815766 C5.76084534,4.57853153 5.73068008,4.66853604 4.43357415,4.66853604 L2.92555085,4.66853604 L2.92555085,1.33741441 C2.92555085,0.797148649 2.9557161,0.797148649 3.52885593,0.797148649 L4.31291314,0.797148649 C5.24803602,0.797148649 5.73068008,0.887153153 5.98708475,1.14212613 C6.21308475,1.36725676 6.39407627,1.78743694 6.54490254,2.47763063 L6.99738136,2.41770721 C6.90688559,1.5475045 6.84655508,0.436891892 6.81638983,0.196959459 L0,0.196959459" id="Fill-10" fill="#1A1919" mask="url(#mask-2)"></path>
                    </g>
                    <path d="M7.62103602,36.7239865 L7.62103602,37.1441667 C8.79748093,37.2341712 8.91814195,37.3542568 8.91814195,38.9748153 L8.91814195,44.2265901 C8.91814195,45.8471486 8.79748093,45.9672342 7.62103602,46.0572387 L7.62103602,46.4774189 L11.8738581,46.4774189 L11.8738581,46.0572387 C10.7278178,45.9672342 10.6071568,45.8471486 10.6071568,44.2265901 L10.6071568,38.9748153 C10.6071568,37.3542568 10.7278178,37.2341712 11.8738581,37.1441667 L11.8738581,36.7239865 L7.62103602,36.7239865" id="Fill-12" fill="#1A1919"></path>
                    <path d="M15.5106864,37.8343604 C15.5106864,37.3542568 15.5408517,37.2940946 16.2648178,37.2940946 C17.2298665,37.2940946 18.3158157,37.8343604 18.3158157,39.3949955 C18.3158157,40.1150315 18.1046589,40.8353063 17.5013538,41.3156486 C17.1092055,41.6157432 16.6871314,41.7057477 16.0838263,41.7057477 L15.5106864,41.7057477 L15.5106864,37.8343604 Z M12.5851356,36.7239865 L12.5851356,37.1441667 C13.7311758,37.2341712 13.8518369,37.3542568 13.8518369,38.9748153 L13.8518369,44.2265901 C13.8518369,45.8471486 13.7311758,45.9672342 12.5248051,46.0572387 L12.5248051,46.4774189 L16.7776271,46.4774189 L16.7776271,46.0572387 C15.6313475,45.9672342 15.5106864,45.8471486 15.5106864,44.2265901 L15.5106864,42.2159324 L15.9933305,42.2159324 C16.4458093,42.2159324 16.6268008,42.3658604 16.8678835,42.7860405 C17.3052797,43.5664775 17.8030064,44.5266847 18.2856504,45.2168784 C18.8736335,46.0572387 19.3864428,46.4774189 21.0302097,46.5975045 L21.6636801,46.6273468 L21.7240106,46.2372477 C21.2866144,46.1322027 21.0452924,45.9070721 20.6833093,45.5470541 C20.3969788,45.2469595 20.0048305,44.7066937 19.4316907,43.8813739 C18.9490466,43.2062207 18.3610636,42.1557703 18.1197415,41.7355901 C19.3411949,41.2855676 20.1254915,40.4003243 20.1254915,39.1397838 C20.1254915,38.2545405 19.7182606,37.6242703 19.1300381,37.2341712 C18.5269725,36.8438333 17.7426758,36.7239865 16.6418835,36.7239865 L12.5851356,36.7239865 L12.5851356,36.7239865 Z" id="Fill-13" fill="#1A1919"></path>
                    <path d="M27.6584258,38.9296937 C27.507839,38.0893333 27.4173432,37.4292207 27.3570127,36.9039955 C27.1760212,36.8290315 26.9648644,36.7989505 26.7235424,36.7089459 C26.3012288,36.559018 25.7584936,36.4988559 25.3512627,36.4988559 C23.3304301,36.4988559 22.1389025,37.7892387 22.1389025,39.3649144 C22.1389025,40.8353063 23.4058432,41.6307838 24.4010572,42.1409685 L24.8837013,42.3809009 C26.0749894,42.9660495 26.4822203,43.5664775 26.4822203,44.4065991 C26.4822203,45.336964 25.8789153,46.1021216 24.8987839,46.1021216 C23.3455127,46.1021216 22.5310508,44.4366802 22.2293983,43.656482 L21.7771589,43.8064099 C21.9277458,44.7217342 22.1087373,45.7421036 22.2293983,46.1322027 C22.4103898,46.1921261 22.6818771,46.3122117 23.1041907,46.4473378 C23.496339,46.582464 24.0393136,46.7025495 24.612214,46.7025495 C26.6481292,46.7025495 28.0505742,45.442009 28.0505742,43.656482 C28.0505742,42.0958468 26.9648644,41.3006081 25.7886589,40.7753829 L25.3965106,40.5953739 C24.2351483,40.0701486 23.6320826,39.5148423 23.6320826,38.6747207 C23.6320826,37.8193198 24.1748178,37.099045 25.1702712,37.099045 C26.4369725,37.099045 26.9045339,38.1494955 27.1760212,39.0196982 L27.6584258,38.9296937" id="Fill-14" fill="#1A1919"></path>
                    <path d="M28.9761208,39.0949009 C29.1571123,38.3746261 29.3381038,37.9842883 29.5190953,37.7744369 C29.7604174,37.5041847 30.1523263,37.3241757 31.4494322,37.3241757 L31.9620021,37.3241757 L31.9620021,44.2265901 C31.9620021,45.8471486 31.8413411,45.9672342 30.5143093,46.0572387 L30.5143093,46.4774189 L35.1592797,46.4774189 L35.1592797,46.0572387 C33.771678,45.9672342 33.6510169,45.8471486 33.6510169,44.2265901 L33.6510169,37.3241757 L34.4353136,37.3241757 C35.3704364,37.3241757 35.8528411,37.4141802 36.1092458,37.6992342 C36.3354852,37.9243649 36.5164767,38.314464 36.667303,39.0949009 L37.1197818,39.0648198 C37.029286,38.1043739 36.9689555,36.9639189 36.9387903,36.3338874 L36.6974682,36.3338874 C36.4561462,36.633982 36.3656504,36.7239865 35.9735021,36.7239865 L29.7604174,36.7239865 C29.3381038,36.7239865 29.1872775,36.6939054 28.9761208,36.3338874 L28.7046335,36.3338874 C28.6744682,37.1140856 28.5839725,38.1043739 28.5236419,39.0949009 L28.9761208,39.0949009" id="Fill-15" fill="#1A1919"></path>
                    <path d="M52.361375,49.5225315 C51.0343432,48.9373829 48.1696017,47.1525721 47.1289004,46.4473378 C49.1798983,45.802027 50.6125085,43.9713784 50.6125085,41.4206937 C50.6125085,38.494473 48.4561716,36.4988559 45.8471165,36.4988559 C42.303178,36.4988559 40.5689153,39.304991 40.5689153,41.7656712 C40.5689153,44.3767568 42.3635085,46.5072613 45.0929852,46.687509 C47.0082394,48.0678964 48.1545191,48.5331982 48.5916758,48.6380045 C48.9385763,48.7580901 51.4413347,49.792545 52.2859619,49.8226261 L52.361375,49.5225315 Z M45.2136462,46.0271577 C43.4793835,45.6520991 42.5294174,43.7164054 42.5294174,41.2855676 C42.5294174,38.6295991 43.7207055,37.099045 45.4097203,37.099045 C47.4456356,37.099045 48.6520064,38.8547297 48.6520064,41.9757613 C48.6520064,44.4065991 47.7623708,45.7120225 46.4805869,46.0123559 C46.3448432,45.9371532 46.2543475,45.8772297 46.1638517,45.8170676 L45.2136462,46.0271577 L45.2136462,46.0271577 Z" id="Fill-16" fill="#1A1919"></path>
                    <path d="M51.1468644,36.7239865 L51.1468644,37.1441667 C52.3532352,37.2341712 52.4738962,37.3241757 52.4738962,38.9447342 L52.4738962,42.410982 C52.4738962,44.1814685 52.805714,45.262 53.6048538,45.9070721 C54.3589852,46.5223018 55.3541992,46.7025495 56.289322,46.7025495 C57.3448665,46.7025495 58.4157331,46.2971712 59.0791292,45.5771351 C59.9086737,44.6916532 60.180161,43.4463919 60.180161,41.9908018 L60.180161,40.9253108 C60.180161,39.2147477 60.2558136,38.3746261 60.3159047,37.9243649 C60.3913178,37.3840991 60.7834661,37.174009 61.5373581,37.1441667 L61.5373581,36.7239865 L57.8576758,36.7239865 L57.8576758,37.1441667 C58.8227246,37.2040901 59.2450381,37.3840991 59.3204513,37.9243649 C59.3807818,38.3746261 59.4561949,39.2147477 59.4561949,40.9253108 L59.4561949,41.8258333 C59.4561949,44.4517207 58.5514767,45.8321081 56.7267182,45.8321081 C54.9472076,45.8321081 54.162911,44.4966036 54.162911,42.1108874 L54.162911,38.9447342 C54.162911,37.3241757 54.283572,37.2341712 55.399447,37.1441667 L55.399447,36.7239865 L51.1468644,36.7239865" id="Fill-17" fill="#1A1919"></path>
                    <path d="M64.9797881,36.7239865 L61.9333369,44.5266847 C61.4054449,45.8772297 61.239536,45.9371532 60.3046525,46.0572387 L60.3046525,46.4774189 L63.6525169,46.4774189 L63.6525169,46.0572387 L63.2302034,46.0123559 C62.5668072,45.9371532 62.4461462,45.7421036 62.7176335,44.9468649 C62.9290297,44.3165946 63.2000381,43.4762342 63.3961123,43.0262117 L66.1861589,43.0262117 C66.5028941,43.8064099 66.8646377,44.7367748 67.015464,45.1867973 C67.1964555,45.7571441 67.1662903,45.9070721 66.5931504,45.9970766 L66.1710763,46.0572387 L66.1710763,46.4774189 L70.1373284,46.4774189 L70.1373284,46.0572387 C69.2627754,45.9672342 69.0513792,45.8621892 68.5385699,44.5266847 C67.9656695,43.0262117 67.3020339,41.165482 66.6233157,39.3348333 L65.5828538,36.5439775 L64.9797881,36.7239865 Z M64.7384661,39.0347387 L64.783714,39.0347387 L65.9599195,42.336018 L63.5620212,42.336018 L64.7384661,39.0347387 L64.7384661,39.0347387 Z" id="Fill-18" fill="#1A1919"></path>
                    <path d="M69.9929661,36.7239865 L69.9929661,37.1441667 C71.2297415,37.2341712 71.5613199,37.5941892 71.5613199,39.3348333 L71.5613199,42.2758559 C71.5613199,43.9864189 71.4859068,44.8267793 71.4255763,45.2770405 C71.3504025,45.8170676 70.9582542,46.0271577 70.2041229,46.0572387 L70.2041229,46.4774189 L73.8838051,46.4774189 L73.8838051,46.0572387 C72.9187564,45.9970766 72.4964428,45.8170676 72.4210297,45.2770405 C72.3606992,44.8267793 72.2855254,43.9864189 72.2855254,42.2758559 L72.2855254,39.0347387 L72.3156907,39.0347387 L78.5287754,46.5975045 L79.2223369,46.5975045 L79.2223369,40.9253108 C79.2223369,39.2147477 79.29775,38.3746261 79.3583199,37.9243649 C79.4334936,37.3840991 79.8256419,37.174009 80.5795339,37.1441667 L80.5795339,36.7239865 L76.9000911,36.7239865 L76.9000911,37.1441667 C77.8651398,37.2040901 78.2874534,37.3840991 78.3628665,37.9243649 C78.423197,38.3746261 78.4983708,39.2147477 78.4983708,40.9253108 L78.4983708,43.7763288 L78.4684449,43.7763288 L72.4511949,36.7239865 L69.9929661,36.7239865" id="Fill-19" fill="#1A1919"></path>
                    <path d="M81.2637585,39.0949009 C81.44475,38.3746261 81.6257415,37.9842883 81.8067331,37.7744369 C82.0480551,37.5041847 82.439964,37.3241757 83.7373093,37.3241757 L84.2496398,37.3241757 L84.2496398,44.2265901 C84.2496398,45.8471486 84.1292182,45.9672342 82.801947,46.0572387 L82.801947,46.4774189 L87.4469174,46.4774189 L87.4469174,46.0572387 C86.0593157,45.9672342 85.9386547,45.8471486 85.9386547,44.2265901 L85.9386547,37.3241757 L86.7229513,37.3241757 C87.6580742,37.3241757 88.1404788,37.4141802 88.3968835,37.6992342 C88.6231229,37.9243649 88.8043538,38.314464 88.9549407,39.0949009 L89.4074195,39.0648198 C89.3169237,38.1043739 89.2565932,36.9639189 89.226428,36.3338874 L88.9851059,36.3338874 C88.7437839,36.633982 88.6532881,36.7239865 88.2611398,36.7239865 L82.0480551,36.7239865 C81.6257415,36.7239865 81.4749153,36.6939054 81.2637585,36.3338874 L80.9922712,36.3338874 C80.9621059,37.1140856 80.8716102,38.1043739 80.8112797,39.0949009 L81.2637585,39.0949009" id="Fill-20" fill="#1A1919"></path>
                    <path d="M89.6971017,36.7239865 L89.6971017,37.1441667 C90.9034725,37.2341712 91.0241335,37.3241757 91.0241335,38.9447342 L91.0241335,42.410982 C91.0241335,44.1814685 91.3559513,45.262 92.1553305,45.9070721 C92.9092225,46.5223018 93.9046758,46.7025495 94.8397987,46.7025495 C95.8953432,46.7025495 96.9659703,46.2971712 97.6296059,45.5771351 C98.458911,44.6916532 98.7303983,43.4463919 98.7303983,41.9908018 L98.7303983,40.9253108 C98.7303983,39.2147477 98.8058114,38.3746261 98.8661419,37.9243649 C98.9415551,37.3840991 99.3337034,37.174009 100.087595,37.1441667 L100.087595,36.7239865 L96.4079131,36.7239865 L96.4079131,37.1441667 C97.3734407,37.2040901 97.7952754,37.3840991 97.8706886,37.9243649 C97.9310191,38.3746261 98.0064322,39.2147477 98.0064322,40.9253108 L98.0064322,41.8258333 C98.0064322,44.4517207 97.101714,45.8321081 95.2769555,45.8321081 C93.4974449,45.8321081 92.7131483,44.4966036 92.7131483,42.1108874 L92.7131483,38.9447342 C92.7131483,37.3241757 92.8338093,37.2341712 93.9499237,37.1441667 L93.9499237,36.7239865 L89.6971017,36.7239865" id="Fill-21" fill="#1A1919"></path>
                    <path d="M100.468492,36.7239865 L100.468492,37.1441667 C101.765358,37.2642523 101.871176,37.4141802 101.765358,39.4097973 L101.599449,42.5009865 C101.524275,43.941536 101.403854,44.8267793 101.328201,45.2770405 C101.222623,45.8471486 100.92097,45.9970766 100.166839,46.0572387 L100.166839,46.4774189 L103.740943,46.4774189 L103.740943,46.0572387 C102.745729,45.9672342 102.428994,45.8471486 102.368663,45.2770405 C102.308333,44.8267793 102.29325,44.0014595 102.323415,42.6509144 L102.428994,38.7647252 L102.489324,38.7647252 L105.791941,46.2971712 L106.244419,46.2971712 L109.667697,38.4646306 L109.728028,38.4646306 L109.788358,44.2265901 C109.803441,45.9070721 109.758193,45.9371532 108.581987,46.0572387 L108.581987,46.4774189 L112.789322,46.4774189 L112.789322,46.0572387 C111.568108,45.9371532 111.522621,45.9070721 111.477373,44.2265901 L111.326547,38.9748153 C111.296381,37.3241757 111.356712,37.2642523 112.578405,37.1441667 L112.578405,36.7239865 L109.728028,36.7239865 L106.576237,43.8813739 L103.243456,36.7239865 L100.468492,36.7239865" id="Fill-22" fill="#1A1919"></path>
                    <polyline id="Fill-23" fill="#C7832B" points="63.1229492 18.825027 67.1287034 14.8304505 64.0001356 11.7108514 66.1667669 9.55026577 71.457178 14.8259144 63.1014025 23.1247117 59.9290233 19.9609459 56.7011017 23.1800991 54.5399767 21.0250045 59.9385996 15.6412072 63.1229492 18.825027"></polyline>
                    <polyline id="Fill-24" fill="#C7832B" points="60.7686229 8.4959955 56.7731631 4.51144595 53.6366949 7.63916216 51.4755699 5.48430631 56.7796271 0.19504955 65.080339 8.50626126 61.8998199 11.6781441 65.1196017 14.8887027 62.9529703 17.0492883 57.5679936 11.6795766 60.7686229 8.4959955"></polyline>
                    <polyline id="Fill-25" fill="#C7832B" points="50.4499513 10.8077027 46.444197 14.8022793 49.5727648 17.9221171 47.4063729 20.0827027 42.1157225 14.8068153 50.4710191 6.50801802 53.6438771 9.67178378 56.8717987 6.45263063 59.0329237 8.60772523 53.6345403 13.9915225 50.4499513 10.8077027"></polyline>
                    <polyline id="Fill-26" fill="#C7832B" points="52.7623814 21.1393604 56.7580805 25.1236712 59.8945487 21.9957162 62.0556737 24.1508108 56.7516165 29.4403063 48.4504258 21.1290946 51.6309449 17.9572117 48.4111631 14.7464144 50.5775551 12.5855901 55.9630106 17.9555405 52.7623814 21.1393604"></polyline>
                </g>
            </g>
        </g>
    </g>
</svg>